<?xml version="1.0" encoding="UTF-8" standalone="no"?>
<!DOCTYPE svg PUBLIC "-//W3C//DTD SVG 1.1//EN"
 "http://www.w3.org/Graphics/SVG/1.1/DTD/svg11.dtd">
<!-- Generated by graphviz version 2.42.4 (0)
 -->
<!-- Pages: 1 -->
<svg width="1377pt" height="446pt"
 viewBox="0.00 0.00 1377.00 446.00" xmlns="http://www.w3.org/2000/svg" xmlns:xlink="http://www.w3.org/1999/xlink">
<g id="graph0" class="graph" transform="scale(1 1) rotate(0) translate(4 442)">
<polygon fill="#ffffff" stroke="transparent" points="-4,4 -4,-442 1373,-442 1373,4 -4,4"/>
<!-- Pico -->
<g id="node1" class="node">
<title>Pico</title>
<polygon fill="#ffffff" stroke="black" points="429,-335.5 0,-335.5 0,-105.5 429,-105.5 429,-335.5"/>
<polygon fill="none" stroke="black" points="0.5,-312.5 0.5,-335.5 429.5,-335.5 429.5,-312.5 0.5,-312.5"/>
<text text-anchor="start" x="201.5" y="-320.3" font-family="arial" font-size="14.00">Pico</text>
<polygon fill="none" stroke="black" points="0.5,-289.5 0.5,-312.5 145.5,-312.5 145.5,-289.5 0.5,-289.5"/>
<text text-anchor="start" x="4.5" y="-297.3" font-family="arial" font-size="14.00">Raspberry Pi Pico 2 W</text>
<polygon fill="none" stroke="black" points="145.5,-289.5 145.5,-312.5 390.5,-312.5 390.5,-289.5 145.5,-289.5"/>
<text text-anchor="start" x="149.5" y="-297.3" font-family="arial" font-size="14.00">physical pins, pin 1 top left with USB up</text>
<polygon fill="none" stroke="black" points="390.5,-289.5 390.5,-312.5 429.5,-312.5 429.5,-289.5 390.5,-289.5"/>
<text text-anchor="start" x="394.5" y="-297.3" font-family="arial" font-size="14.00">8&#45;pin</text>
<polygon fill="none" stroke="black" points="0.5,-266.5 0.5,-289.5 253.5,-289.5 253.5,-266.5 0.5,-266.5"/>
<text text-anchor="start" x="95.5" y="-274.3" font-family="arial" font-size="14.00">3V3(OUT)</text>
<polygon fill="none" stroke="black" points="253.5,-266.5 253.5,-289.5 429.5,-289.5 429.5,-266.5 253.5,-266.5"/>
<text text-anchor="start" x="333.5" y="-274.3" font-family="arial" font-size="14.00">36</text>
<polygon fill="none" stroke="black" points="0.5,-243.5 0.5,-266.5 253.5,-266.5 253.5,-243.5 0.5,-243.5"/>
<text text-anchor="start" x="111.5" y="-251.3" font-family="arial" font-size="14.00">GND</text>
<polygon fill="none" stroke="black" points="253.5,-243.5 253.5,-266.5 429.5,-266.5 429.5,-243.5 253.5,-243.5"/>
<text text-anchor="start" x="333.5" y="-251.3" font-family="arial" font-size="14.00">38</text>
<polygon fill="none" stroke="black" points="0.5,-220.5 0.5,-243.5 253.5,-243.5 253.5,-220.5 0.5,-220.5"/>
<text text-anchor="start" x="81" y="-228.3" font-family="arial" font-size="14.00">GP4 I2C0 SDA</text>
<polygon fill="none" stroke="black" points="253.5,-220.5 253.5,-243.5 429.5,-243.5 429.5,-220.5 253.5,-220.5"/>
<text text-anchor="start" x="337.5" y="-228.3" font-family="arial" font-size="14.00">6</text>
<polygon fill="none" stroke="black" points="0.5,-197.5 0.5,-220.5 253.5,-220.5 253.5,-197.5 0.5,-197.5"/>
<text text-anchor="start" x="81.5" y="-205.3" font-family="arial" font-size="14.00">GP5 I2C0 SCL</text>
<polygon fill="none" stroke="black" points="253.5,-197.5 253.5,-220.5 429.5,-220.5 429.5,-197.5 253.5,-197.5"/>
<text text-anchor="start" x="337.5" y="-205.3" font-family="arial" font-size="14.00">7</text>
<polygon fill="none" stroke="black" points="0.5,-174.5 0.5,-197.5 253.5,-197.5 253.5,-174.5 0.5,-174.5"/>
<text text-anchor="start" x="109" y="-182.3" font-family="arial" font-size="14.00">GP10</text>
<polygon fill="none" stroke="black" points="253.5,-174.5 253.5,-197.5 429.5,-197.5 429.5,-174.5 253.5,-174.5"/>
<text text-anchor="start" x="333.5" y="-182.3" font-family="arial" font-size="14.00">14</text>
<polygon fill="none" stroke="black" points="0.5,-151.5 0.5,-174.5 253.5,-174.5 253.5,-151.5 0.5,-151.5"/>
<text text-anchor="start" x="109.5" y="-159.3" font-family="arial" font-size="14.00">GP11</text>
<polygon fill="none" stroke="black" points="253.5,-151.5 253.5,-174.5 429.5,-174.5 429.5,-151.5 253.5,-151.5"/>
<text text-anchor="start" x="333.5" y="-159.3" font-family="arial" font-size="14.00">15</text>
<polygon fill="none" stroke="black" points="0.5,-128.5 0.5,-151.5 253.5,-151.5 253.5,-128.5 0.5,-128.5"/>
<text text-anchor="start" x="109" y="-136.3" font-family="arial" font-size="14.00">GP12</text>
<polygon fill="none" stroke="black" points="253.5,-128.5 253.5,-151.5 429.5,-151.5 429.5,-128.5 253.5,-128.5"/>
<text text-anchor="start" x="333.5" y="-136.3" font-family="arial" font-size="14.00">16</text>
<polygon fill="none" stroke="black" points="0.5,-105.5 0.5,-128.5 253.5,-128.5 253.5,-105.5 0.5,-105.5"/>
<text text-anchor="start" x="109" y="-113.3" font-family="arial" font-size="14.00">GP13</text>
<polygon fill="none" stroke="black" points="253.5,-105.5 253.5,-128.5 429.5,-128.5 429.5,-105.5 253.5,-105.5"/>
<text text-anchor="start" x="333.5" y="-113.3" font-family="arial" font-size="14.00">17</text>
</g>
<!-- W1 -->
<g id="node3" class="node">
<title>W1</title>
<polygon fill="#ffffff" stroke="black" stroke-dasharray="5,2" points="859,-438 573,-438 573,-231 859,-231 859,-438"/>
<polygon fill="none" stroke="black" points="573,-414.5 573,-437.5 859,-437.5 859,-414.5 573,-414.5"/>
<text text-anchor="start" x="705" y="-422.3" font-family="arial" font-size="14.00">W1</text>
<polygon fill="none" stroke="black" points="573,-391.5 573,-414.5 859,-414.5 859,-391.5 573,-391.5"/>
<text text-anchor="start" x="708.5" y="-399.3" font-family="arial" font-size="14.00">4x</text>
<text text-anchor="start" x="639.5" y="-378.3" font-family="arial" font-size="14.00"> </text>
<text text-anchor="start" x="585.5" y="-359.3" font-family="arial" font-size="14.00">Pico:36:3V3(OUT)</text>
<text text-anchor="start" x="713.5" y="-359.3" font-family="arial" font-size="14.00"> &#160;&#160;&#160;&#160;RD &#160;&#160;&#160;</text>
<text text-anchor="start" x="774" y="-359.3" font-family="arial" font-size="14.00">OLED:1:VCC</text>
<polygon fill="#000000" stroke="transparent" points="573,-351.5 573,-353.5 859,-353.5 859,-351.5 573,-351.5"/>
<polygon fill="#ff0000" stroke="transparent" points="573,-349.5 573,-351.5 859,-351.5 859,-349.5 573,-349.5"/>
<polygon fill="#000000" stroke="transparent" points="573,-347.5 573,-349.5 859,-349.5 859,-347.5 573,-347.5"/>
<text text-anchor="start" x="601.5" y="-334.3" font-family="arial" font-size="14.00">Pico:38:GND</text>
<text text-anchor="start" x="714.5" y="-334.3" font-family="arial" font-size="14.00"> &#160;&#160;&#160;&#160;BK &#160;&#160;&#160;</text>
<text text-anchor="start" x="773" y="-334.3" font-family="arial" font-size="14.00">OLED:2:GND</text>
<polygon fill="#000000" stroke="transparent" points="573,-326.5 573,-328.5 859,-328.5 859,-326.5 573,-326.5"/>
<polygon fill="#000000" stroke="transparent" points="573,-324.5 573,-326.5 859,-326.5 859,-324.5 573,-324.5"/>
<polygon fill="#000000" stroke="transparent" points="573,-322.5 573,-324.5 859,-324.5 859,-322.5 573,-322.5"/>
<text text-anchor="start" x="575" y="-309.3" font-family="arial" font-size="14.00">Pico:6:GP4 I2C0 SDA</text>
<text text-anchor="start" x="714" y="-309.3" font-family="arial" font-size="14.00"> &#160;&#160;&#160;&#160;BU &#160;&#160;&#160;</text>
<text text-anchor="start" x="774.5" y="-309.3" font-family="arial" font-size="14.00">OLED:3:SDA</text>
<polygon fill="#000000" stroke="transparent" points="573,-301.5 573,-303.5 859,-303.5 859,-301.5 573,-301.5"/>
<polygon fill="#0066ff" stroke="transparent" points="573,-299.5 573,-301.5 859,-301.5 859,-299.5 573,-299.5"/>
<polygon fill="#000000" stroke="transparent" points="573,-297.5 573,-299.5 859,-299.5 859,-297.5 573,-297.5"/>
<text text-anchor="start" x="575.5" y="-284.3" font-family="arial" font-size="14.00">Pico:7:GP5 I2C0 SCL</text>
<text text-anchor="start" x="712" y="-284.3" font-family="arial" font-size="14.00"> &#160;&#160;&#160;&#160;OG &#160;&#160;&#160;</text>
<text text-anchor="start" x="775.5" y="-284.3" font-family="arial" font-size="14.00">OLED:4:SCL</text>
<polygon fill="#000000" stroke="transparent" points="573,-276.5 573,-278.5 859,-278.5 859,-276.5 573,-276.5"/>
<polygon fill="#ff8000" stroke="transparent" points="573,-274.5 573,-276.5 859,-276.5 859,-274.5 573,-274.5"/>
<polygon fill="#000000" stroke="transparent" points="573,-272.5 573,-274.5 859,-274.5 859,-272.5 573,-272.5"/>
<text text-anchor="start" x="639.5" y="-259.3" font-family="arial" font-size="14.00"> </text>
<polygon fill="none" stroke="black" points="573,-230.5 573,-253.5 859,-253.5 859,-230.5 573,-230.5"/>
<text text-anchor="start" x="661.5" y="-238.3" font-family="arial" font-size="14.00">display, 3.3 V only</text>
</g>
<!-- Pico&#45;&#45;W1 -->
<g id="edge1" class="edge">
<title>Pico:e&#45;&#45;W1:w</title>
<path fill="none" stroke="#000000" stroke-width="2" d="M429,-276.5C502.55,-278.48 503.45,-350.48 573,-348.5"/>
<path fill="none" stroke="#ff0000" stroke-width="2" d="M429,-278.5C500.55,-278.5 501.45,-350.5 573,-350.5"/>
<path fill="none" stroke="#000000" stroke-width="2" d="M429,-280.5C498.55,-278.52 499.45,-350.52 573,-352.5"/>
</g>
<!-- Pico&#45;&#45;W1 -->
<g id="edge3" class="edge">
<title>Pico:e&#45;&#45;W1:w</title>
<path fill="none" stroke="#000000" stroke-width="2" d="M429,-253.5C502.16,-255.45 503.84,-325.45 573,-323.5"/>
<path fill="none" stroke="#000000" stroke-width="2" d="M429,-255.5C500.16,-255.5 501.84,-325.5 573,-325.5"/>
<path fill="none" stroke="#000000" stroke-width="2" d="M429,-257.5C498.16,-255.55 499.84,-325.55 573,-327.5"/>
</g>
<!-- Pico&#45;&#45;W1 -->
<g id="edge5" class="edge">
<title>Pico:e&#45;&#45;W1:w</title>
<path fill="none" stroke="#000000" stroke-width="2" d="M429,-230.5C501.78,-232.43 504.22,-300.43 573,-298.5"/>
<path fill="none" stroke="#0066ff" stroke-width="2" d="M429,-232.5C499.78,-232.5 502.22,-300.5 573,-300.5"/>
<path fill="none" stroke="#000000" stroke-width="2" d="M429,-234.5C497.78,-232.57 500.22,-300.57 573,-302.5"/>
</g>
<!-- Pico&#45;&#45;W1 -->
<g id="edge7" class="edge">
<title>Pico:e&#45;&#45;W1:w</title>
<path fill="none" stroke="#000000" stroke-width="2" d="M429,-206.5C501.59,-208.42 504.41,-275.42 573,-273.5"/>
<path fill="none" stroke="#ff8000" stroke-width="2" d="M429,-208.5C499.59,-208.5 502.41,-275.5 573,-275.5"/>
<path fill="none" stroke="#000000" stroke-width="2" d="M429,-210.5C497.59,-208.58 500.41,-275.58 573,-277.5"/>
</g>
<!-- W2 -->
<g id="node4" class="node">
<title>W2</title>
<polygon fill="#ffffff" stroke="black" stroke-dasharray="5,2" points="838.5,-207 593.5,-207 593.5,0 838.5,0 838.5,-207"/>
<polygon fill="none" stroke="black" points="594,-183.5 594,-206.5 839,-206.5 839,-183.5 594,-183.5"/>
<text text-anchor="start" x="705.5" y="-191.3" font-family="arial" font-size="14.00">W2</text>
<polygon fill="none" stroke="black" points="594,-160.5 594,-183.5 839,-183.5 839,-160.5 594,-160.5"/>
<text text-anchor="start" x="709" y="-168.3" font-family="arial" font-size="14.00">4x</text>
<text text-anchor="start" x="641" y="-147.3" font-family="arial" font-size="14.00"> </text>
<text text-anchor="start" x="600.5" y="-128.3" font-family="arial" font-size="14.00">Pico:14:GP10</text>
<text text-anchor="start" x="698.5" y="-128.3" font-family="arial" font-size="14.00"> &#160;&#160;&#160;&#160;VT &#160;&#160;&#160;</text>
<text text-anchor="start" x="763" y="-128.3" font-family="arial" font-size="14.00">OLED:5:K1</text>
<polygon fill="#000000" stroke="transparent" points="594,-120.5 594,-122.5 839,-122.5 839,-120.5 594,-120.5"/>
<polygon fill="#8000ff" stroke="transparent" points="594,-118.5 594,-120.5 839,-120.5 839,-118.5 594,-118.5"/>
<polygon fill="#000000" stroke="transparent" points="594,-116.5 594,-118.5 839,-118.5 839,-116.5 594,-116.5"/>
<text text-anchor="start" x="601" y="-103.3" font-family="arial" font-size="14.00">Pico:15:GP11</text>
<text text-anchor="start" x="698.5" y="-103.3" font-family="arial" font-size="14.00"> &#160;&#160;&#160;&#160;VT &#160;&#160;&#160;</text>
<text text-anchor="start" x="763" y="-103.3" font-family="arial" font-size="14.00">OLED:6:K2</text>
<polygon fill="#000000" stroke="transparent" points="594,-95.5 594,-97.5 839,-97.5 839,-95.5 594,-95.5"/>
<polygon fill="#8000ff" stroke="transparent" points="594,-93.5 594,-95.5 839,-95.5 839,-93.5 594,-93.5"/>
<polygon fill="#000000" stroke="transparent" points="594,-91.5 594,-93.5 839,-93.5 839,-91.5 594,-91.5"/>
<text text-anchor="start" x="600.5" y="-78.3" font-family="arial" font-size="14.00">Pico:16:GP12</text>
<text text-anchor="start" x="698.5" y="-78.3" font-family="arial" font-size="14.00"> &#160;&#160;&#160;&#160;VT &#160;&#160;&#160;</text>
<text text-anchor="start" x="763" y="-78.3" font-family="arial" font-size="14.00">OLED:7:K3</text>
<polygon fill="#000000" stroke="transparent" points="594,-70.5 594,-72.5 839,-72.5 839,-70.5 594,-70.5"/>
<polygon fill="#8000ff" stroke="transparent" points="594,-68.5 594,-70.5 839,-70.5 839,-68.5 594,-68.5"/>
<polygon fill="#000000" stroke="transparent" points="594,-66.5 594,-68.5 839,-68.5 839,-66.5 594,-66.5"/>
<text text-anchor="start" x="600.5" y="-53.3" font-family="arial" font-size="14.00">Pico:17:GP13</text>
<text text-anchor="start" x="698.5" y="-53.3" font-family="arial" font-size="14.00"> &#160;&#160;&#160;&#160;VT &#160;&#160;&#160;</text>
<text text-anchor="start" x="763" y="-53.3" font-family="arial" font-size="14.00">OLED:8:K4</text>
<polygon fill="#000000" stroke="transparent" points="594,-45.5 594,-47.5 839,-47.5 839,-45.5 594,-45.5"/>
<polygon fill="#8000ff" stroke="transparent" points="594,-43.5 594,-45.5 839,-45.5 839,-43.5 594,-43.5"/>
<polygon fill="#000000" stroke="transparent" points="594,-41.5 594,-43.5 839,-43.5 839,-41.5 594,-41.5"/>
<text text-anchor="start" x="641" y="-28.3" font-family="arial" font-size="14.00"> </text>
<polygon fill="none" stroke="black" points="594,0.5 594,-22.5 839,-22.5 839,0.5 594,0.5"/>
<text text-anchor="start" x="598" y="-7.3" font-family="arial" font-size="14.00">buttons, pressed pulls the pin to ground</text>
</g>
<!-- Pico&#45;&#45;W2 -->
<g id="edge9" class="edge">
<title>Pico:e&#45;&#45;W2:w</title>
<path fill="none" stroke="#000000" stroke-width="2" d="M429,-183.5C505.58,-185.29 512.44,-119.29 593,-117.5"/>
<path fill="none" stroke="#8000ff" stroke-width="2" d="M429,-185.5C507.57,-185.5 514.43,-119.5 593,-119.5"/>
<path fill="none" stroke="#000000" stroke-width="2" d="M429,-187.5C509.56,-185.71 516.42,-119.71 593,-121.5"/>
</g>
<!-- Pico&#45;&#45;W2 -->
<g id="edge11" class="edge">
<title>Pico:e&#45;&#45;W2:w</title>
<path fill="none" stroke="#000000" stroke-width="2" d="M429,-160.5C505.91,-162.32 512.1,-94.32 593,-92.5"/>
<path fill="none" stroke="#8000ff" stroke-width="2" d="M429,-162.5C507.91,-162.5 514.09,-94.5 593,-94.5"/>
<path fill="none" stroke="#000000" stroke-width="2" d="M429,-164.5C509.9,-162.68 516.09,-94.68 593,-96.5"/>
</g>
<!-- Pico&#45;&#45;W2 -->
<g id="edge13" class="edge">
<title>Pico:e&#45;&#45;W2:w</title>
<path fill="none" stroke="#000000" stroke-width="2" d="M429,-137.5C506.26,-139.34 511.76,-69.34 593,-67.5"/>
<path fill="none" stroke="#8000ff" stroke-width="2" d="M429,-139.5C508.25,-139.5 513.75,-69.5 593,-69.5"/>
<path fill="none" stroke="#000000" stroke-width="2" d="M429,-141.5C510.24,-139.66 515.74,-69.66 593,-71.5"/>
</g>
<!-- Pico&#45;&#45;W2 -->
<g id="edge15" class="edge">
<title>Pico:e&#45;&#45;W2:w</title>
<path fill="none" stroke="#000000" stroke-width="2" d="M429,-114.5C506.61,-116.37 511.4,-44.37 593,-42.5"/>
<path fill="none" stroke="#8000ff" stroke-width="2" d="M429,-116.5C508.6,-116.5 513.4,-44.5 593,-44.5"/>
<path fill="none" stroke="#000000" stroke-width="2" d="M429,-118.5C510.6,-116.63 515.39,-44.63 593,-46.5"/>
</g>
<!-- OLED -->
<g id="node2" class="node">
<title>OLED</title>
<polygon fill="#ffffff" stroke="black" points="1369,-335.5 1003,-335.5 1003,-105.5 1369,-105.5 1369,-335.5"/>
<polygon fill="none" stroke="black" points="1003,-312.5 1003,-335.5 1369,-335.5 1369,-312.5 1003,-312.5"/>
<text text-anchor="start" x="1167" y="-320.3" font-family="arial" font-size="14.00">OLED</text>
<polygon fill="none" stroke="black" points="1003,-289.5 1003,-312.5 1156,-312.5 1156,-289.5 1003,-289.5"/>
<text text-anchor="start" x="1007" y="-297.3" font-family="arial" font-size="14.00">0.96 in OLED, 4 buttons</text>
<polygon fill="none" stroke="black" points="1156,-289.5 1156,-312.5 1330,-312.5 1330,-289.5 1156,-289.5"/>
<text text-anchor="start" x="1160" y="-297.3" font-family="arial" font-size="14.00">SSD1306 128x64 I2C 0x3C</text>
<polygon fill="none" stroke="black" points="1330,-289.5 1330,-312.5 1369,-312.5 1369,-289.5 1330,-289.5"/>
<text text-anchor="start" x="1334" y="-297.3" font-family="arial" font-size="14.00">8&#45;pin</text>
<polygon fill="none" stroke="black" points="1003,-266.5 1003,-289.5 1175,-289.5 1175,-266.5 1003,-266.5"/>
<text text-anchor="start" x="1085" y="-274.3" font-family="arial" font-size="14.00">1</text>
<polygon fill="none" stroke="black" points="1175,-266.5 1175,-289.5 1369,-289.5 1369,-266.5 1175,-266.5"/>
<text text-anchor="start" x="1257.5" y="-274.3" font-family="arial" font-size="14.00">VCC</text>
<polygon fill="none" stroke="black" points="1003,-243.5 1003,-266.5 1175,-266.5 1175,-243.5 1003,-243.5"/>
<text text-anchor="start" x="1085" y="-251.3" font-family="arial" font-size="14.00">2</text>
<polygon fill="none" stroke="black" points="1175,-243.5 1175,-266.5 1369,-266.5 1369,-243.5 1175,-243.5"/>
<text text-anchor="start" x="1256.5" y="-251.3" font-family="arial" font-size="14.00">GND</text>
<polygon fill="none" stroke="black" points="1003,-220.5 1003,-243.5 1175,-243.5 1175,-220.5 1003,-220.5"/>
<text text-anchor="start" x="1085" y="-228.3" font-family="arial" font-size="14.00">3</text>
<polygon fill="none" stroke="black" points="1175,-220.5 1175,-243.5 1369,-243.5 1369,-220.5 1175,-220.5"/>
<text text-anchor="start" x="1258" y="-228.3" font-family="arial" font-size="14.00">SDA</text>
<polygon fill="none" stroke="black" points="1003,-197.5 1003,-220.5 1175,-220.5 1175,-197.5 1003,-197.5"/>
<text text-anchor="start" x="1085" y="-205.3" font-family="arial" font-size="14.00">4</text>
<polygon fill="none" stroke="black" points="1175,-197.5 1175,-220.5 1369,-220.5 1369,-197.5 1175,-197.5"/>
<text text-anchor="start" x="1258.5" y="-205.3" font-family="arial" font-size="14.00">SCL</text>
<polygon fill="none" stroke="black" points="1003,-174.5 1003,-197.5 1175,-197.5 1175,-174.5 1003,-174.5"/>
<text text-anchor="start" x="1085" y="-182.3" font-family="arial" font-size="14.00">5</text>
<polygon fill="none" stroke="black" points="1175,-174.5 1175,-197.5 1369,-197.5 1369,-174.5 1175,-174.5"/>
<text text-anchor="start" x="1263.5" y="-182.3" font-family="arial" font-size="14.00">K1</text>
<polygon fill="none" stroke="black" points="1003,-151.5 1003,-174.5 1175,-174.5 1175,-151.5 1003,-151.5"/>
<text text-anchor="start" x="1085" y="-159.3" font-family="arial" font-size="14.00">6</text>
<polygon fill="none" stroke="black" points="1175,-151.5 1175,-174.5 1369,-174.5 1369,-151.5 1175,-151.5"/>
<text text-anchor="start" x="1263.5" y="-159.3" font-family="arial" font-size="14.00">K2</text>
<polygon fill="none" stroke="black" points="1003,-128.5 1003,-151.5 1175,-151.5 1175,-128.5 1003,-128.5"/>
<text text-anchor="start" x="1085" y="-136.3" font-family="arial" font-size="14.00">7</text>
<polygon fill="none" stroke="black" points="1175,-128.5 1175,-151.5 1369,-151.5 1369,-128.5 1175,-128.5"/>
<text text-anchor="start" x="1263.5" y="-136.3" font-family="arial" font-size="14.00">K3</text>
<polygon fill="none" stroke="black" points="1003,-105.5 1003,-128.5 1175,-128.5 1175,-105.5 1003,-105.5"/>
<text text-anchor="start" x="1085" y="-113.3" font-family="arial" font-size="14.00">8</text>
<polygon fill="none" stroke="black" points="1175,-105.5 1175,-128.5 1369,-128.5 1369,-105.5 1175,-105.5"/>
<text text-anchor="start" x="1263.5" y="-113.3" font-family="arial" font-size="14.00">K4</text>
</g>
<!-- W1&#45;&#45;OLED -->
<g id="edge2" class="edge">
<title>W1:e&#45;&#45;OLED:w</title>
<path fill="none" stroke="#000000" stroke-width="2" d="M859,-348.5C928.55,-350.48 929.45,-278.48 1003,-276.5"/>
<path fill="none" stroke="#ff0000" stroke-width="2" d="M859,-350.5C930.55,-350.5 931.45,-278.5 1003,-278.5"/>
<path fill="none" stroke="#000000" stroke-width="2" d="M859,-352.5C932.55,-350.52 933.45,-278.52 1003,-280.5"/>
</g>
<!-- W1&#45;&#45;OLED -->
<g id="edge4" class="edge">
<title>W1:e&#45;&#45;OLED:w</title>
<path fill="none" stroke="#000000" stroke-width="2" d="M859,-323.5C928.16,-325.45 929.84,-255.45 1003,-253.5"/>
<path fill="none" stroke="#000000" stroke-width="2" d="M859,-325.5C930.16,-325.5 931.84,-255.5 1003,-255.5"/>
<path fill="none" stroke="#000000" stroke-width="2" d="M859,-327.5C932.16,-325.55 933.84,-255.55 1003,-257.5"/>
</g>
<!-- W1&#45;&#45;OLED -->
<g id="edge6" class="edge">
<title>W1:e&#45;&#45;OLED:w</title>
<path fill="none" stroke="#000000" stroke-width="2" d="M859,-298.5C927.78,-300.43 930.22,-232.43 1003,-230.5"/>
<path fill="none" stroke="#0066ff" stroke-width="2" d="M859,-300.5C929.78,-300.5 932.22,-232.5 1003,-232.5"/>
<path fill="none" stroke="#000000" stroke-width="2" d="M859,-302.5C931.78,-300.57 934.22,-232.57 1003,-234.5"/>
</g>
<!-- W1&#45;&#45;OLED -->
<g id="edge8" class="edge">
<title>W1:e&#45;&#45;OLED:w</title>
<path fill="none" stroke="#000000" stroke-width="2" d="M859,-273.5C927.59,-275.42 930.41,-208.42 1003,-206.5"/>
<path fill="none" stroke="#ff8000" stroke-width="2" d="M859,-275.5C929.59,-275.5 932.41,-208.5 1003,-208.5"/>
<path fill="none" stroke="#000000" stroke-width="2" d="M859,-277.5C931.59,-275.58 934.41,-208.58 1003,-210.5"/>
</g>
<!-- W2&#45;&#45;OLED -->
<g id="edge10" class="edge">
<title>W2:e&#45;&#45;OLED:w</title>
<path fill="none" stroke="#000000" stroke-width="2" d="M840,-117.5C920.15,-119.3 926.83,-185.3 1003,-183.5"/>
<path fill="none" stroke="#8000ff" stroke-width="2" d="M840,-119.5C918.16,-119.5 924.84,-185.5 1003,-185.5"/>
<path fill="none" stroke="#000000" stroke-width="2" d="M840,-121.5C916.17,-119.7 922.85,-185.7 1003,-187.5"/>
</g>
<!-- W2&#45;&#45;OLED -->
<g id="edge12" class="edge">
<title>W2:e&#45;&#45;OLED:w</title>
<path fill="none" stroke="#000000" stroke-width="2" d="M840,-92.5C920.49,-94.32 926.5,-162.32 1003,-160.5"/>
<path fill="none" stroke="#8000ff" stroke-width="2" d="M840,-94.5C918.5,-94.5 924.5,-162.5 1003,-162.5"/>
<path fill="none" stroke="#000000" stroke-width="2" d="M840,-96.5C916.5,-94.68 922.51,-162.68 1003,-164.5"/>
</g>
<!-- W2&#45;&#45;OLED -->
<g id="edge14" class="edge">
<title>W2:e&#45;&#45;OLED:w</title>
<path fill="none" stroke="#000000" stroke-width="2" d="M840,-67.5C920.84,-69.35 926.15,-139.35 1003,-137.5"/>
<path fill="none" stroke="#8000ff" stroke-width="2" d="M840,-69.5C918.84,-69.5 924.16,-139.5 1003,-139.5"/>
<path fill="none" stroke="#000000" stroke-width="2" d="M840,-71.5C916.85,-69.65 922.16,-139.65 1003,-141.5"/>
</g>
<!-- W2&#45;&#45;OLED -->
<g id="edge16" class="edge">
<title>W2:e&#45;&#45;OLED:w</title>
<path fill="none" stroke="#000000" stroke-width="2" d="M840,-42.5C921.19,-44.37 925.8,-116.37 1003,-114.5"/>
<path fill="none" stroke="#8000ff" stroke-width="2" d="M840,-44.5C919.2,-44.5 923.8,-116.5 1003,-116.5"/>
<path fill="none" stroke="#000000" stroke-width="2" d="M840,-46.5C917.2,-44.63 921.81,-116.63 1003,-118.5"/>
</g>
</g>
</svg>
